<mxfile host="app.diagrams.net" modified="2022-04-14T00:10:50.675Z" agent="5.0 (X11; CrOS x86_64 14469.59.0) AppleWebKit/537.36 (KHTML, like Gecko) Chrome/99.0.4844.94 Safari/537.36" etag="j-inuLk0s4XpQlU-Oqfc" version="17.4.4" type="github">
  <diagram id="xRpauJaL2kgVzzrO5x2l" name="Page-1">
    <mxGraphModel dx="868" dy="442" grid="1" gridSize="10" guides="1" tooltips="1" connect="1" arrows="1" fold="1" page="1" pageScale="1" pageWidth="850" pageHeight="1100" math="0" shadow="0">
      <root>
        <mxCell id="0" />
        <mxCell id="1" parent="0" />
        <mxCell id="ZyGHPosLNIEFegIK6wfl-18" value="Display completed letters" style="text;align=left;verticalAlign=top;spacingLeft=4;spacingRight=4;overflow=hidden;rotatable=0;points=[[0,0.5],[1,0.5]];portConstraint=eastwest;" vertex="1" parent="1">
          <mxGeometry x="150" y="116" width="250" height="26" as="geometry" />
        </mxCell>
        <mxCell id="ZyGHPosLNIEFegIK6wfl-19" value="Display Bad Guesses&#xa;" style="text;align=left;verticalAlign=top;spacingLeft=4;spacingRight=4;overflow=hidden;rotatable=0;points=[[0,0.5],[1,0.5]];portConstraint=eastwest;rounded=0;shadow=0;html=0;" vertex="1" parent="1">
          <mxGeometry x="150" y="142" width="250" height="26" as="geometry" />
        </mxCell>
        <mxCell id="ZyGHPosLNIEFegIK6wfl-20" value="Display number of turns  left" style="text;align=left;verticalAlign=top;spacingLeft=4;spacingRight=4;overflow=hidden;rotatable=0;points=[[0,0.5],[1,0.5]];portConstraint=eastwest;rounded=0;shadow=0;html=0;" vertex="1" parent="1">
          <mxGeometry x="150" y="168" width="250" height="26" as="geometry" />
        </mxCell>
        <mxCell id="ZyGHPosLNIEFegIK6wfl-21" value="" style="line;html=1;strokeWidth=1;align=left;verticalAlign=middle;spacingTop=-1;spacingLeft=3;spacingRight=3;rotatable=0;labelPosition=right;points=[];portConstraint=eastwest;" vertex="1" parent="1">
          <mxGeometry x="150" y="90" width="250" height="40" as="geometry" />
        </mxCell>
        <mxCell id="ZyGHPosLNIEFegIK6wfl-22" value="Display total number of turns" style="text;align=left;verticalAlign=top;spacingLeft=4;spacingRight=4;overflow=hidden;rotatable=0;points=[[0,0.5],[1,0.5]];portConstraint=eastwest;" vertex="1" parent="1">
          <mxGeometry x="150" y="202" width="250" height="26" as="geometry" />
        </mxCell>
        <mxCell id="ZyGHPosLNIEFegIK6wfl-23" value="Ask for next letter " style="text;align=left;verticalAlign=top;spacingLeft=4;spacingRight=4;overflow=hidden;rotatable=0;points=[[0,0.5],[1,0.5]];portConstraint=eastwest;" vertex="1" parent="1">
          <mxGeometry x="30" y="396" width="260" height="26" as="geometry" />
        </mxCell>
        <mxCell id="ZyGHPosLNIEFegIK6wfl-24" value="Let user type in letter&#xa;&#xa;Reject guess and try again&#xa;&#xa;if user types in nuymber of bad data" style="text;align=left;verticalAlign=top;spacingLeft=4;spacingRight=4;overflow=hidden;rotatable=0;points=[[0,0.5],[1,0.5]];portConstraint=eastwest;rounded=0;shadow=0;html=0;" vertex="1" parent="1">
          <mxGeometry x="30" y="422" width="260" height="98" as="geometry" />
        </mxCell>
        <mxCell id="ZyGHPosLNIEFegIK6wfl-25" value="" style="line;html=1;strokeWidth=1;align=left;verticalAlign=middle;spacingTop=-1;spacingLeft=3;spacingRight=3;rotatable=0;labelPosition=right;points=[];portConstraint=eastwest;" vertex="1" parent="1">
          <mxGeometry x="20" y="396" width="260" height="8" as="geometry" />
        </mxCell>
        <mxCell id="ZyGHPosLNIEFegIK6wfl-26" value="" style="endArrow=block;endSize=10;endFill=0;shadow=0;strokeWidth=1;rounded=0;edgeStyle=elbowEdgeStyle;elbow=vertical;" edge="1" parent="1">
          <mxGeometry width="160" relative="1" as="geometry">
            <mxPoint x="160" y="370" as="sourcePoint" />
            <mxPoint x="275" y="270" as="targetPoint" />
          </mxGeometry>
        </mxCell>
        <mxCell id="ZyGHPosLNIEFegIK6wfl-27" value="Get a secret word" style="swimlane;fontStyle=0;align=center;verticalAlign=top;childLayout=stackLayout;horizontal=1;startSize=26;horizontalStack=0;resizeParent=1;resizeLast=0;collapsible=1;marginBottom=0;rounded=0;shadow=0;strokeWidth=1;" vertex="1" parent="1">
          <mxGeometry x="340" y="370" width="160" height="70" as="geometry">
            <mxRectangle x="340" y="380" width="170" height="26" as="alternateBounds" />
          </mxGeometry>
        </mxCell>
        <mxCell id="ZyGHPosLNIEFegIK6wfl-28" value="Randomly select a word" style="text;align=left;verticalAlign=top;spacingLeft=4;spacingRight=4;overflow=hidden;rotatable=0;points=[[0,0.5],[1,0.5]];portConstraint=eastwest;" vertex="1" parent="ZyGHPosLNIEFegIK6wfl-27">
          <mxGeometry y="26" width="160" height="26" as="geometry" />
        </mxCell>
        <mxCell id="ZyGHPosLNIEFegIK6wfl-29" value="" style="line;html=1;strokeWidth=1;align=left;verticalAlign=middle;spacingTop=-1;spacingLeft=3;spacingRight=3;rotatable=0;labelPosition=right;points=[];portConstraint=eastwest;" vertex="1" parent="ZyGHPosLNIEFegIK6wfl-27">
          <mxGeometry y="52" width="160" height="8" as="geometry" />
        </mxCell>
        <mxCell id="ZyGHPosLNIEFegIK6wfl-30" value="" style="endArrow=block;endSize=10;endFill=0;shadow=0;strokeWidth=1;rounded=0;edgeStyle=elbowEdgeStyle;elbow=vertical;" edge="1" parent="1" source="ZyGHPosLNIEFegIK6wfl-27">
          <mxGeometry width="160" relative="1" as="geometry">
            <mxPoint x="220" y="383" as="sourcePoint" />
            <mxPoint x="275" y="270" as="targetPoint" />
          </mxGeometry>
        </mxCell>
        <mxCell id="ZyGHPosLNIEFegIK6wfl-31" value="Check Word" style="swimlane;fontStyle=0;align=center;verticalAlign=top;childLayout=stackLayout;horizontal=1;startSize=26;horizontalStack=0;resizeParent=1;resizeLast=0;collapsible=1;marginBottom=0;rounded=0;shadow=0;strokeWidth=1;" vertex="1" parent="1">
          <mxGeometry x="518" y="130" width="160" height="216" as="geometry">
            <mxRectangle x="550" y="140" width="160" height="26" as="alternateBounds" />
          </mxGeometry>
        </mxCell>
        <mxCell id="ZyGHPosLNIEFegIK6wfl-32" value="" style="line;html=1;strokeWidth=1;align=left;verticalAlign=middle;spacingTop=-1;spacingLeft=3;spacingRight=3;rotatable=0;labelPosition=right;points=[];portConstraint=eastwest;" vertex="1" parent="ZyGHPosLNIEFegIK6wfl-31">
          <mxGeometry y="26" width="160" height="8" as="geometry" />
        </mxCell>
        <mxCell id="ZyGHPosLNIEFegIK6wfl-33" value="Check to see if the guess&#xa;is part of the secret word&#xa;if it is a part of the word. &#xa;earn the letters&#xa;" style="text;align=left;verticalAlign=top;spacingLeft=4;spacingRight=4;overflow=hidden;rotatable=0;points=[[0,0.5],[1,0.5]];portConstraint=eastwest;" vertex="1" parent="ZyGHPosLNIEFegIK6wfl-31">
          <mxGeometry y="34" width="160" height="146" as="geometry" />
        </mxCell>
        <mxCell id="ZyGHPosLNIEFegIK6wfl-34" value="" style="endArrow=open;shadow=0;strokeWidth=1;rounded=0;endFill=1;edgeStyle=elbowEdgeStyle;elbow=vertical;" edge="1" parent="1" target="ZyGHPosLNIEFegIK6wfl-31">
          <mxGeometry x="0.5" y="41" relative="1" as="geometry">
            <mxPoint x="400" y="200" as="sourcePoint" />
            <mxPoint x="550" y="202" as="targetPoint" />
            <mxPoint x="-40" y="32" as="offset" />
          </mxGeometry>
        </mxCell>
        <mxCell id="ZyGHPosLNIEFegIK6wfl-35" value="Hangman GUI" style="text;html=1;strokeColor=none;fillColor=none;align=center;verticalAlign=middle;whiteSpace=wrap;rounded=0;" vertex="1" parent="1">
          <mxGeometry x="230" y="70" width="85" height="30" as="geometry" />
        </mxCell>
        <mxCell id="ZyGHPosLNIEFegIK6wfl-36" value="Guess a new letter" style="text;html=1;strokeColor=none;fillColor=none;align=center;verticalAlign=middle;whiteSpace=wrap;rounded=0;" vertex="1" parent="1">
          <mxGeometry x="80" y="366" width="100" height="30" as="geometry" />
        </mxCell>
      </root>
    </mxGraphModel>
  </diagram>
</mxfile>
